<mxfile host="app.diagrams.net" agent="Mozilla/5.0 (Windows NT 10.0; Win64; x64) AppleWebKit/537.36 (KHTML, like Gecko) Chrome/127.0.0.0 Safari/537.36 OPR/113.0.0.0" version="24.8.3">
  <diagram name="Página-1" id="nPEkbyJLMctUS6vtj-rc">
    <mxGraphModel dx="2441" dy="156" grid="0" gridSize="10" guides="1" tooltips="1" connect="1" arrows="1" fold="1" page="0" pageScale="1" pageWidth="827" pageHeight="1169" math="0" shadow="0">
      <root>
        <mxCell id="0" />
        <mxCell id="1" parent="0" />
        <mxCell id="lOKb49YVc73qP3Tbzx3c-15" style="edgeStyle=none;curved=1;rounded=0;orthogonalLoop=1;jettySize=auto;html=1;exitX=0.5;exitY=1;exitDx=0;exitDy=0;entryX=0;entryY=0.5;entryDx=0;entryDy=0;fontSize=12;startSize=8;endSize=8;" edge="1" parent="1" source="lOKb49YVc73qP3Tbzx3c-2" target="lOKb49YVc73qP3Tbzx3c-11">
          <mxGeometry relative="1" as="geometry">
            <Array as="points">
              <mxPoint x="-837" y="642" />
            </Array>
          </mxGeometry>
        </mxCell>
        <mxCell id="lOKb49YVc73qP3Tbzx3c-17" style="edgeStyle=none;curved=1;rounded=0;orthogonalLoop=1;jettySize=auto;html=1;exitX=0.5;exitY=1;exitDx=0;exitDy=0;entryX=0;entryY=0.5;entryDx=0;entryDy=0;fontSize=12;startSize=8;endSize=8;" edge="1" parent="1" source="lOKb49YVc73qP3Tbzx3c-2" target="lOKb49YVc73qP3Tbzx3c-12">
          <mxGeometry relative="1" as="geometry">
            <Array as="points">
              <mxPoint x="-845" y="658" />
            </Array>
          </mxGeometry>
        </mxCell>
        <mxCell id="lOKb49YVc73qP3Tbzx3c-18" style="edgeStyle=none;curved=1;rounded=0;orthogonalLoop=1;jettySize=auto;html=1;exitX=0.5;exitY=1;exitDx=0;exitDy=0;entryX=0;entryY=0.5;entryDx=0;entryDy=0;fontSize=12;startSize=8;endSize=8;" edge="1" parent="1" source="lOKb49YVc73qP3Tbzx3c-2" target="lOKb49YVc73qP3Tbzx3c-13">
          <mxGeometry relative="1" as="geometry">
            <Array as="points">
              <mxPoint x="-859" y="695" />
            </Array>
          </mxGeometry>
        </mxCell>
        <mxCell id="lOKb49YVc73qP3Tbzx3c-20" style="edgeStyle=none;curved=1;rounded=0;orthogonalLoop=1;jettySize=auto;html=1;exitX=0.5;exitY=1;exitDx=0;exitDy=0;entryX=0;entryY=0.5;entryDx=0;entryDy=0;fontSize=12;startSize=8;endSize=8;" edge="1" parent="1" source="lOKb49YVc73qP3Tbzx3c-2" target="lOKb49YVc73qP3Tbzx3c-16">
          <mxGeometry relative="1" as="geometry">
            <Array as="points">
              <mxPoint x="-891" y="753" />
            </Array>
          </mxGeometry>
        </mxCell>
        <mxCell id="lOKb49YVc73qP3Tbzx3c-2" value="LIVRO" style="rounded=1;whiteSpace=wrap;html=1;" vertex="1" parent="1">
          <mxGeometry x="-881" y="502" width="120" height="60" as="geometry" />
        </mxCell>
        <mxCell id="lOKb49YVc73qP3Tbzx3c-28" style="edgeStyle=none;curved=1;rounded=0;orthogonalLoop=1;jettySize=auto;html=1;exitX=0.5;exitY=1;exitDx=0;exitDy=0;entryX=0;entryY=0.5;entryDx=0;entryDy=0;fontSize=12;startSize=8;endSize=8;" edge="1" parent="1" source="lOKb49YVc73qP3Tbzx3c-3" target="lOKb49YVc73qP3Tbzx3c-22">
          <mxGeometry relative="1" as="geometry">
            <Array as="points">
              <mxPoint x="-333" y="615" />
            </Array>
          </mxGeometry>
        </mxCell>
        <mxCell id="lOKb49YVc73qP3Tbzx3c-29" style="edgeStyle=none;curved=1;rounded=0;orthogonalLoop=1;jettySize=auto;html=1;exitX=0.5;exitY=1;exitDx=0;exitDy=0;entryX=0;entryY=0.5;entryDx=0;entryDy=0;fontSize=12;startSize=8;endSize=8;" edge="1" parent="1" source="lOKb49YVc73qP3Tbzx3c-3" target="lOKb49YVc73qP3Tbzx3c-23">
          <mxGeometry relative="1" as="geometry">
            <Array as="points">
              <mxPoint x="-349" y="654" />
            </Array>
          </mxGeometry>
        </mxCell>
        <mxCell id="lOKb49YVc73qP3Tbzx3c-43" style="edgeStyle=none;curved=1;rounded=0;orthogonalLoop=1;jettySize=auto;html=1;exitX=0.5;exitY=1;exitDx=0;exitDy=0;entryX=0;entryY=0.5;entryDx=0;entryDy=0;fontSize=12;startSize=8;endSize=8;" edge="1" parent="1" source="lOKb49YVc73qP3Tbzx3c-3" target="lOKb49YVc73qP3Tbzx3c-24">
          <mxGeometry relative="1" as="geometry">
            <Array as="points">
              <mxPoint x="-356" y="677" />
            </Array>
          </mxGeometry>
        </mxCell>
        <mxCell id="lOKb49YVc73qP3Tbzx3c-44" style="edgeStyle=none;curved=1;rounded=0;orthogonalLoop=1;jettySize=auto;html=1;exitX=0.5;exitY=1;exitDx=0;exitDy=0;entryX=0;entryY=0.5;entryDx=0;entryDy=0;fontSize=12;startSize=8;endSize=8;" edge="1" parent="1" source="lOKb49YVc73qP3Tbzx3c-3" target="lOKb49YVc73qP3Tbzx3c-25">
          <mxGeometry relative="1" as="geometry">
            <Array as="points">
              <mxPoint x="-367" y="703" />
            </Array>
          </mxGeometry>
        </mxCell>
        <mxCell id="lOKb49YVc73qP3Tbzx3c-45" style="edgeStyle=none;curved=1;rounded=0;orthogonalLoop=1;jettySize=auto;html=1;exitX=0.5;exitY=1;exitDx=0;exitDy=0;entryX=0;entryY=0.5;entryDx=0;entryDy=0;fontSize=12;startSize=8;endSize=8;" edge="1" parent="1" source="lOKb49YVc73qP3Tbzx3c-3" target="lOKb49YVc73qP3Tbzx3c-26">
          <mxGeometry relative="1" as="geometry">
            <Array as="points">
              <mxPoint x="-375" y="743" />
            </Array>
          </mxGeometry>
        </mxCell>
        <mxCell id="lOKb49YVc73qP3Tbzx3c-46" style="edgeStyle=none;curved=1;rounded=0;orthogonalLoop=1;jettySize=auto;html=1;exitX=0.5;exitY=1;exitDx=0;exitDy=0;entryX=0;entryY=0.5;entryDx=0;entryDy=0;fontSize=12;startSize=8;endSize=8;" edge="1" parent="1" source="lOKb49YVc73qP3Tbzx3c-3" target="lOKb49YVc73qP3Tbzx3c-27">
          <mxGeometry relative="1" as="geometry">
            <Array as="points">
              <mxPoint x="-391" y="769" />
            </Array>
          </mxGeometry>
        </mxCell>
        <mxCell id="lOKb49YVc73qP3Tbzx3c-48" style="edgeStyle=none;curved=1;rounded=0;orthogonalLoop=1;jettySize=auto;html=1;exitX=0.5;exitY=1;exitDx=0;exitDy=0;entryX=0;entryY=0.5;entryDx=0;entryDy=0;fontSize=12;startSize=8;endSize=8;" edge="1" parent="1" source="lOKb49YVc73qP3Tbzx3c-3" target="lOKb49YVc73qP3Tbzx3c-47">
          <mxGeometry relative="1" as="geometry">
            <Array as="points">
              <mxPoint x="-387" y="881" />
            </Array>
          </mxGeometry>
        </mxCell>
        <mxCell id="lOKb49YVc73qP3Tbzx3c-3" value="USUÁRIO" style="rounded=1;whiteSpace=wrap;html=1;" vertex="1" parent="1">
          <mxGeometry x="-406" y="504" width="120" height="60" as="geometry" />
        </mxCell>
        <mxCell id="lOKb49YVc73qP3Tbzx3c-37" style="edgeStyle=none;curved=1;rounded=0;orthogonalLoop=1;jettySize=auto;html=1;exitX=0.5;exitY=1;exitDx=0;exitDy=0;entryX=0;entryY=0.5;entryDx=0;entryDy=0;fontSize=12;startSize=8;endSize=8;" edge="1" parent="1" source="lOKb49YVc73qP3Tbzx3c-4" target="lOKb49YVc73qP3Tbzx3c-31">
          <mxGeometry relative="1" as="geometry">
            <Array as="points">
              <mxPoint x="-589" y="603" />
            </Array>
          </mxGeometry>
        </mxCell>
        <mxCell id="lOKb49YVc73qP3Tbzx3c-38" style="edgeStyle=none;curved=1;rounded=0;orthogonalLoop=1;jettySize=auto;html=1;exitX=0.5;exitY=1;exitDx=0;exitDy=0;entryX=0;entryY=0.5;entryDx=0;entryDy=0;fontSize=12;startSize=8;endSize=8;" edge="1" parent="1" source="lOKb49YVc73qP3Tbzx3c-4" target="lOKb49YVc73qP3Tbzx3c-32">
          <mxGeometry relative="1" as="geometry">
            <Array as="points">
              <mxPoint x="-588" y="650" />
            </Array>
          </mxGeometry>
        </mxCell>
        <mxCell id="lOKb49YVc73qP3Tbzx3c-39" style="edgeStyle=none;curved=1;rounded=0;orthogonalLoop=1;jettySize=auto;html=1;exitX=0.5;exitY=1;exitDx=0;exitDy=0;entryX=0;entryY=0.5;entryDx=0;entryDy=0;fontSize=12;startSize=8;endSize=8;" edge="1" parent="1" source="lOKb49YVc73qP3Tbzx3c-4" target="lOKb49YVc73qP3Tbzx3c-33">
          <mxGeometry relative="1" as="geometry">
            <Array as="points">
              <mxPoint x="-592" y="680" />
            </Array>
          </mxGeometry>
        </mxCell>
        <mxCell id="lOKb49YVc73qP3Tbzx3c-40" style="edgeStyle=none;curved=1;rounded=0;orthogonalLoop=1;jettySize=auto;html=1;exitX=0.5;exitY=1;exitDx=0;exitDy=0;entryX=0;entryY=0.5;entryDx=0;entryDy=0;fontSize=12;startSize=8;endSize=8;" edge="1" parent="1" source="lOKb49YVc73qP3Tbzx3c-4" target="lOKb49YVc73qP3Tbzx3c-34">
          <mxGeometry relative="1" as="geometry">
            <Array as="points">
              <mxPoint x="-608" y="698" />
            </Array>
          </mxGeometry>
        </mxCell>
        <mxCell id="lOKb49YVc73qP3Tbzx3c-41" style="edgeStyle=none;curved=1;rounded=0;orthogonalLoop=1;jettySize=auto;html=1;exitX=0.5;exitY=1;exitDx=0;exitDy=0;entryX=0;entryY=0.5;entryDx=0;entryDy=0;fontSize=12;startSize=8;endSize=8;" edge="1" parent="1" source="lOKb49YVc73qP3Tbzx3c-4" target="lOKb49YVc73qP3Tbzx3c-35">
          <mxGeometry relative="1" as="geometry">
            <Array as="points">
              <mxPoint x="-619" y="735" />
            </Array>
          </mxGeometry>
        </mxCell>
        <mxCell id="lOKb49YVc73qP3Tbzx3c-42" style="edgeStyle=none;curved=1;rounded=0;orthogonalLoop=1;jettySize=auto;html=1;exitX=0.5;exitY=1;exitDx=0;exitDy=0;entryX=0;entryY=0.5;entryDx=0;entryDy=0;fontSize=12;startSize=8;endSize=8;" edge="1" parent="1" source="lOKb49YVc73qP3Tbzx3c-4" target="lOKb49YVc73qP3Tbzx3c-36">
          <mxGeometry relative="1" as="geometry">
            <Array as="points">
              <mxPoint x="-635" y="756" />
            </Array>
          </mxGeometry>
        </mxCell>
        <mxCell id="lOKb49YVc73qP3Tbzx3c-4" value="EMPRÉSTIMO" style="rounded=1;whiteSpace=wrap;html=1;" vertex="1" parent="1">
          <mxGeometry x="-643" y="504" width="120" height="60" as="geometry" />
        </mxCell>
        <mxCell id="lOKb49YVc73qP3Tbzx3c-7" value="ID" style="ellipse;whiteSpace=wrap;html=1;" vertex="1" parent="1">
          <mxGeometry x="-781" y="584" width="87" height="48" as="geometry" />
        </mxCell>
        <mxCell id="lOKb49YVc73qP3Tbzx3c-8" style="edgeStyle=none;curved=1;rounded=0;orthogonalLoop=1;jettySize=auto;html=1;exitX=0.5;exitY=1;exitDx=0;exitDy=0;entryX=0.011;entryY=0.375;entryDx=0;entryDy=0;entryPerimeter=0;fontSize=12;startSize=8;endSize=8;" edge="1" parent="1" source="lOKb49YVc73qP3Tbzx3c-2" target="lOKb49YVc73qP3Tbzx3c-7">
          <mxGeometry relative="1" as="geometry">
            <Array as="points">
              <mxPoint x="-830" y="598" />
            </Array>
          </mxGeometry>
        </mxCell>
        <mxCell id="lOKb49YVc73qP3Tbzx3c-9" style="edgeStyle=none;curved=1;rounded=0;orthogonalLoop=1;jettySize=auto;html=1;exitX=0;exitY=1;exitDx=0;exitDy=0;fontSize=12;startSize=8;endSize=8;" edge="1" parent="1" source="lOKb49YVc73qP3Tbzx3c-7" target="lOKb49YVc73qP3Tbzx3c-7">
          <mxGeometry relative="1" as="geometry" />
        </mxCell>
        <mxCell id="lOKb49YVc73qP3Tbzx3c-10" style="edgeStyle=none;curved=1;rounded=0;orthogonalLoop=1;jettySize=auto;html=1;exitX=0;exitY=1;exitDx=0;exitDy=0;fontSize=12;startSize=8;endSize=8;" edge="1" parent="1">
          <mxGeometry relative="1" as="geometry">
            <mxPoint x="-758" y="635" as="sourcePoint" />
            <mxPoint x="-758" y="635" as="targetPoint" />
          </mxGeometry>
        </mxCell>
        <mxCell id="lOKb49YVc73qP3Tbzx3c-11" value="Título" style="ellipse;whiteSpace=wrap;html=1;" vertex="1" parent="1">
          <mxGeometry x="-781" y="642" width="87" height="48" as="geometry" />
        </mxCell>
        <mxCell id="lOKb49YVc73qP3Tbzx3c-12" value="Autor" style="ellipse;whiteSpace=wrap;html=1;" vertex="1" parent="1">
          <mxGeometry x="-781" y="700" width="87" height="48" as="geometry" />
        </mxCell>
        <mxCell id="lOKb49YVc73qP3Tbzx3c-13" value="Gênero" style="ellipse;whiteSpace=wrap;html=1;" vertex="1" parent="1">
          <mxGeometry x="-781" y="758" width="87" height="48" as="geometry" />
        </mxCell>
        <mxCell id="lOKb49YVc73qP3Tbzx3c-14" value="Editora" style="ellipse;whiteSpace=wrap;html=1;" vertex="1" parent="1">
          <mxGeometry x="-781" y="816" width="87" height="48" as="geometry" />
        </mxCell>
        <mxCell id="lOKb49YVc73qP3Tbzx3c-16" value="Disponibilidade" style="ellipse;whiteSpace=wrap;html=1;" vertex="1" parent="1">
          <mxGeometry x="-781" y="874" width="87" height="48" as="geometry" />
        </mxCell>
        <mxCell id="lOKb49YVc73qP3Tbzx3c-19" style="edgeStyle=none;curved=1;rounded=0;orthogonalLoop=1;jettySize=auto;html=1;exitX=0.5;exitY=1;exitDx=0;exitDy=0;entryX=0.004;entryY=0.604;entryDx=0;entryDy=0;entryPerimeter=0;fontSize=12;startSize=8;endSize=8;" edge="1" parent="1" source="lOKb49YVc73qP3Tbzx3c-2" target="lOKb49YVc73qP3Tbzx3c-14">
          <mxGeometry relative="1" as="geometry">
            <Array as="points">
              <mxPoint x="-875" y="730" />
            </Array>
          </mxGeometry>
        </mxCell>
        <mxCell id="lOKb49YVc73qP3Tbzx3c-22" value="ID" style="ellipse;whiteSpace=wrap;html=1;" vertex="1" parent="1">
          <mxGeometry x="-316" y="584" width="87" height="48" as="geometry" />
        </mxCell>
        <mxCell id="lOKb49YVc73qP3Tbzx3c-23" value="Nome" style="ellipse;whiteSpace=wrap;html=1;" vertex="1" parent="1">
          <mxGeometry x="-316" y="642" width="87" height="48" as="geometry" />
        </mxCell>
        <mxCell id="lOKb49YVc73qP3Tbzx3c-24" value="Email" style="ellipse;whiteSpace=wrap;html=1;" vertex="1" parent="1">
          <mxGeometry x="-316" y="700" width="87" height="48" as="geometry" />
        </mxCell>
        <mxCell id="lOKb49YVc73qP3Tbzx3c-25" value="Telefone" style="ellipse;whiteSpace=wrap;html=1;" vertex="1" parent="1">
          <mxGeometry x="-316" y="758" width="87" height="48" as="geometry" />
        </mxCell>
        <mxCell id="lOKb49YVc73qP3Tbzx3c-26" value="Endereço" style="ellipse;whiteSpace=wrap;html=1;" vertex="1" parent="1">
          <mxGeometry x="-316" y="816" width="87" height="48" as="geometry" />
        </mxCell>
        <mxCell id="lOKb49YVc73qP3Tbzx3c-27" value="Documento" style="ellipse;whiteSpace=wrap;html=1;" vertex="1" parent="1">
          <mxGeometry x="-316" y="874" width="87" height="48" as="geometry" />
        </mxCell>
        <mxCell id="lOKb49YVc73qP3Tbzx3c-31" value="ID" style="ellipse;whiteSpace=wrap;html=1;" vertex="1" parent="1">
          <mxGeometry x="-568" y="584" width="87" height="48" as="geometry" />
        </mxCell>
        <mxCell id="lOKb49YVc73qP3Tbzx3c-32" value="Data de Empréstimo" style="ellipse;whiteSpace=wrap;html=1;" vertex="1" parent="1">
          <mxGeometry x="-568" y="642" width="87" height="48" as="geometry" />
        </mxCell>
        <mxCell id="lOKb49YVc73qP3Tbzx3c-33" value="Data de Devolução" style="ellipse;whiteSpace=wrap;html=1;" vertex="1" parent="1">
          <mxGeometry x="-568" y="700" width="87" height="48" as="geometry" />
        </mxCell>
        <mxCell id="lOKb49YVc73qP3Tbzx3c-34" value="ID Livro" style="ellipse;whiteSpace=wrap;html=1;" vertex="1" parent="1">
          <mxGeometry x="-568" y="758" width="87" height="48" as="geometry" />
        </mxCell>
        <mxCell id="lOKb49YVc73qP3Tbzx3c-35" value="ID Cliente" style="ellipse;whiteSpace=wrap;html=1;" vertex="1" parent="1">
          <mxGeometry x="-568" y="816" width="87" height="48" as="geometry" />
        </mxCell>
        <mxCell id="lOKb49YVc73qP3Tbzx3c-36" value="Status" style="ellipse;whiteSpace=wrap;html=1;" vertex="1" parent="1">
          <mxGeometry x="-568" y="874" width="87" height="48" as="geometry" />
        </mxCell>
        <mxCell id="lOKb49YVc73qP3Tbzx3c-47" value="Idade" style="ellipse;whiteSpace=wrap;html=1;" vertex="1" parent="1">
          <mxGeometry x="-316" y="932" width="87" height="48" as="geometry" />
        </mxCell>
        <mxCell id="lOKb49YVc73qP3Tbzx3c-49" value="Realiza" style="rhombus;whiteSpace=wrap;html=1;" vertex="1" parent="1">
          <mxGeometry x="-507" y="514" width="86" height="36" as="geometry" />
        </mxCell>
        <mxCell id="lOKb49YVc73qP3Tbzx3c-50" value="Contém" style="rhombus;whiteSpace=wrap;html=1;" vertex="1" parent="1">
          <mxGeometry x="-745" y="514" width="86" height="36" as="geometry" />
        </mxCell>
        <mxCell id="lOKb49YVc73qP3Tbzx3c-52" value="" style="endArrow=none;html=1;rounded=0;fontSize=12;startSize=8;endSize=8;curved=1;exitX=1;exitY=0.5;exitDx=0;exitDy=0;entryX=0;entryY=0.5;entryDx=0;entryDy=0;" edge="1" parent="1" source="lOKb49YVc73qP3Tbzx3c-2" target="lOKb49YVc73qP3Tbzx3c-50">
          <mxGeometry width="50" height="50" relative="1" as="geometry">
            <mxPoint x="-669" y="720" as="sourcePoint" />
            <mxPoint x="-619" y="670" as="targetPoint" />
          </mxGeometry>
        </mxCell>
        <mxCell id="lOKb49YVc73qP3Tbzx3c-55" value="" style="endArrow=none;html=1;rounded=0;fontSize=12;startSize=8;endSize=8;curved=1;exitX=0;exitY=0.5;exitDx=0;exitDy=0;entryX=1;entryY=0.5;entryDx=0;entryDy=0;" edge="1" parent="1" source="lOKb49YVc73qP3Tbzx3c-4" target="lOKb49YVc73qP3Tbzx3c-50">
          <mxGeometry width="50" height="50" relative="1" as="geometry">
            <mxPoint x="-719" y="599" as="sourcePoint" />
            <mxPoint x="-669" y="549" as="targetPoint" />
          </mxGeometry>
        </mxCell>
        <mxCell id="lOKb49YVc73qP3Tbzx3c-56" value="" style="endArrow=none;html=1;rounded=0;fontSize=12;startSize=8;endSize=8;curved=1;exitX=1;exitY=0.5;exitDx=0;exitDy=0;entryX=0;entryY=0.5;entryDx=0;entryDy=0;" edge="1" parent="1" source="lOKb49YVc73qP3Tbzx3c-4" target="lOKb49YVc73qP3Tbzx3c-49">
          <mxGeometry width="50" height="50" relative="1" as="geometry">
            <mxPoint x="-460" y="585" as="sourcePoint" />
            <mxPoint x="-410" y="535" as="targetPoint" />
          </mxGeometry>
        </mxCell>
        <mxCell id="lOKb49YVc73qP3Tbzx3c-57" value="" style="endArrow=none;html=1;rounded=0;fontSize=12;startSize=8;endSize=8;curved=1;exitX=1;exitY=0.5;exitDx=0;exitDy=0;entryX=0;entryY=0.5;entryDx=0;entryDy=0;" edge="1" parent="1" source="lOKb49YVc73qP3Tbzx3c-49" target="lOKb49YVc73qP3Tbzx3c-3">
          <mxGeometry width="50" height="50" relative="1" as="geometry">
            <mxPoint x="-460" y="585" as="sourcePoint" />
            <mxPoint x="-410" y="535" as="targetPoint" />
          </mxGeometry>
        </mxCell>
        <mxCell id="lOKb49YVc73qP3Tbzx3c-59" value="N" style="text;html=1;align=center;verticalAlign=middle;whiteSpace=wrap;rounded=0;fontSize=16;" vertex="1" parent="1">
          <mxGeometry x="-761" y="510" width="29" height="14" as="geometry" />
        </mxCell>
        <mxCell id="lOKb49YVc73qP3Tbzx3c-60" value="N" style="text;html=1;align=center;verticalAlign=middle;whiteSpace=wrap;rounded=0;fontSize=16;" vertex="1" parent="1">
          <mxGeometry x="-523" y="510" width="29" height="14" as="geometry" />
        </mxCell>
        <mxCell id="lOKb49YVc73qP3Tbzx3c-61" value="1" style="text;html=1;align=center;verticalAlign=middle;whiteSpace=wrap;rounded=0;fontSize=16;" vertex="1" parent="1">
          <mxGeometry x="-672" y="507" width="29" height="17" as="geometry" />
        </mxCell>
        <mxCell id="lOKb49YVc73qP3Tbzx3c-62" value="1" style="text;html=1;align=center;verticalAlign=middle;whiteSpace=wrap;rounded=0;fontSize=16;" vertex="1" parent="1">
          <mxGeometry x="-435" y="508.5" width="29" height="17" as="geometry" />
        </mxCell>
      </root>
    </mxGraphModel>
  </diagram>
</mxfile>
